<svg width="781" height="393" viewBox="0 0 781 393" fill="none" xmlns="http://www.w3.org/2000/svg">
<rect width="781" height="393" rx="50" fill="#30677E"/>
<path d="M169.48 177.8H126.64V188H166V207.2H126.64V216.2H169.48V239H101.44V155H169.48V177.8ZM184.906 239V179H217.066C239.506 179 252.706 190.16 252.706 209C252.706 227.84 239.506 239 217.066 239H184.906ZM208.906 220.4H215.866C223.906 220.4 228.706 216.2 228.706 209C228.706 201.8 223.906 197.6 215.866 197.6H208.906V220.4ZM297.191 240.92C277.031 240.92 265.151 231.92 265.151 216.8V179H290.351V210.8C290.351 217.04 292.511 219.92 297.191 219.92C301.871 219.92 304.031 217.04 304.031 210.8V179H329.231V216.8C329.231 231.92 317.351 240.92 297.191 240.92ZM377.855 240.92C355.175 240.92 341.735 229.04 341.735 209C341.735 188.96 355.175 177.08 377.855 177.08C386.015 177.08 393.935 178.76 399.695 181.52V201.44C393.695 199.16 386.375 198.08 380.255 198.08C371.015 198.08 366.935 202.16 366.935 209C366.935 215.84 371.015 219.92 380.255 219.92C386.375 219.92 393.695 218.84 399.695 216.56V236.48C393.935 239.24 386.015 240.92 377.855 240.92ZM457.673 239L455.393 230.84H436.673L434.393 239H407.993L430.433 179H461.633L484.073 239H457.673ZM441.953 212.24H450.113L446.633 200H445.433L441.953 212.24ZM528.498 198.08C519.258 198.08 515.178 202.16 515.178 209C515.178 215.84 519.258 219.92 528.498 219.92C534.618 219.92 541.938 218.84 547.938 216.56V236.48C544.218 238.28 539.658 239.6 534.618 240.32L527.058 261.44H508.338L515.898 239.96C499.458 236.84 489.978 225.8 489.978 209C489.978 188.96 503.418 177.08 526.098 177.08C534.258 177.08 542.178 178.76 547.938 181.52V201.44C541.938 199.16 534.618 198.08 528.498 198.08ZM571.955 170.12C571.955 157.04 577.835 151.88 585.875 151.88C591.995 151.88 598.115 155.48 601.955 155.48C604.235 155.48 604.715 153.56 604.715 151.88H618.515C618.515 164.96 612.635 170.12 604.595 170.12C597.755 170.12 592.355 166.52 588.515 166.52C586.235 166.52 585.755 168.44 585.755 170.12H571.955ZM605.915 239L603.635 230.84H584.915L582.635 239H556.235L578.675 179H609.875L632.315 239H605.915ZM590.195 212.24H598.355L594.875 200H593.675L590.195 212.24ZM673.86 240.92C651.42 240.92 638.22 229.04 638.22 209C638.22 188.96 651.42 177.08 673.86 177.08C696.3 177.08 709.5 188.96 709.5 209C709.5 229.04 696.3 240.92 673.86 240.92ZM673.86 219.92C680.46 219.92 684.3 215.84 684.3 209C684.3 202.16 680.46 198.08 673.86 198.08C667.26 198.08 663.42 202.16 663.42 209C663.42 215.84 667.26 219.92 673.86 219.92Z" fill="#0D1137"/>
<path d="M157.48 177.8H114.64V188H154V207.2H114.64V216.2H157.48V239H89.44V155H157.48V177.8ZM172.906 239V179H205.066C227.506 179 240.706 190.16 240.706 209C240.706 227.84 227.506 239 205.066 239H172.906ZM196.906 220.4H203.866C211.906 220.4 216.706 216.2 216.706 209C216.706 201.8 211.906 197.6 203.866 197.6H196.906V220.4ZM285.191 240.92C265.031 240.92 253.151 231.92 253.151 216.8V179H278.351V210.8C278.351 217.04 280.511 219.92 285.191 219.92C289.871 219.92 292.031 217.04 292.031 210.8V179H317.231V216.8C317.231 231.92 305.351 240.92 285.191 240.92ZM365.855 240.92C343.175 240.92 329.735 229.04 329.735 209C329.735 188.96 343.175 177.08 365.855 177.08C374.015 177.08 381.935 178.76 387.695 181.52V201.44C381.695 199.16 374.375 198.08 368.255 198.08C359.015 198.08 354.935 202.16 354.935 209C354.935 215.84 359.015 219.92 368.255 219.92C374.375 219.92 381.695 218.84 387.695 216.56V236.48C381.935 239.24 374.015 240.92 365.855 240.92ZM445.673 239L443.393 230.84H424.673L422.393 239H395.993L418.433 179H449.633L472.073 239H445.673ZM429.953 212.24H438.113L434.633 200H433.433L429.953 212.24ZM516.498 198.08C507.258 198.08 503.178 202.16 503.178 209C503.178 215.84 507.258 219.92 516.498 219.92C522.618 219.92 529.938 218.84 535.938 216.56V236.48C532.218 238.28 527.658 239.6 522.618 240.32L515.058 261.44H496.338L503.898 239.96C487.458 236.84 477.978 225.8 477.978 209C477.978 188.96 491.418 177.08 514.098 177.08C522.258 177.08 530.178 178.76 535.938 181.52V201.44C529.938 199.16 522.618 198.08 516.498 198.08ZM559.955 170.12C559.955 157.04 565.835 151.88 573.875 151.88C579.995 151.88 586.115 155.48 589.955 155.48C592.235 155.48 592.715 153.56 592.715 151.88H606.515C606.515 164.96 600.635 170.12 592.595 170.12C585.755 170.12 580.355 166.52 576.515 166.52C574.235 166.52 573.755 168.44 573.755 170.12H559.955ZM593.915 239L591.635 230.84H572.915L570.635 239H544.235L566.675 179H597.875L620.315 239H593.915ZM578.195 212.24H586.355L582.875 200H581.675L578.195 212.24ZM661.86 240.92C639.42 240.92 626.22 229.04 626.22 209C626.22 188.96 639.42 177.08 661.86 177.08C684.3 177.08 697.5 188.96 697.5 209C697.5 229.04 684.3 240.92 661.86 240.92ZM661.86 219.92C668.46 219.92 672.3 215.84 672.3 209C672.3 202.16 668.46 198.08 661.86 198.08C655.26 198.08 651.42 202.16 651.42 209C651.42 215.84 655.26 219.92 661.86 219.92Z" fill="white"/>
</svg>
