<svg width="781" height="393" viewBox="0 0 781 393" fill="none" xmlns="http://www.w3.org/2000/svg">
<rect width="781" height="393" rx="50" fill="#30677E"/>
<path d="M209.48 179.8H166.64V190H206V209.2H166.64V218.2H209.48V241H141.44V157H209.48V179.8ZM251.694 242.92C243.174 242.92 232.254 241.36 222.534 238.96V219.76C227.574 221.2 240.894 223.36 248.934 223.36C253.494 223.36 255.534 222.64 255.534 220.84C255.534 219.28 253.854 218.8 250.734 218.8H248.454C225.894 218.8 221.814 207.28 221.814 200.44C221.814 186.88 231.174 179.08 252.414 179.08C262.014 179.08 271.254 180.4 277.854 183.04V201.28C273.054 199.6 260.454 197.68 253.014 197.68C248.814 197.68 247.014 198.28 247.014 199.84C247.014 201.4 248.934 202.12 252.414 202.12H254.334C273.294 202.12 280.134 210.88 280.134 220.6C280.134 236.92 268.734 242.92 251.694 242.92ZM328.958 181C343.838 181 356.198 190.36 356.198 205C356.198 219.64 343.838 229 328.958 229H318.398V241H294.398V181H328.958ZM326.198 210.4C329.558 210.4 332.198 208 332.198 205C332.198 202 329.558 199.6 326.198 199.6H318.398V210.4H326.198ZM400.735 242.92C378.295 242.92 365.095 231.04 365.095 211C365.095 190.96 378.295 179.08 400.735 179.08C423.175 179.08 436.375 190.96 436.375 211C436.375 231.04 423.175 242.92 400.735 242.92ZM400.735 221.92C407.335 221.92 411.175 217.84 411.175 211C411.175 204.16 407.335 200.08 400.735 200.08C394.135 200.08 390.295 204.16 390.295 211C390.295 217.84 394.135 221.92 400.735 221.92ZM450.023 241V181H484.583C501.743 181 511.823 189.52 511.823 203.8C511.823 212.68 507.863 219.4 500.783 223.12L514.703 241H487.223L478.703 226.6H474.023V241H450.023ZM474.023 208H482.183C485.783 208 487.823 206.44 487.823 203.8C487.823 201.16 485.783 199.6 482.183 199.6H474.023V208ZM585.346 181V200.8H566.146V241H542.146V200.8H522.946V181H585.346ZM655.368 198.4H622.968V203.44H648.168V218.44H622.968V223.6H655.368V241H598.968V181H655.368V198.4Z" fill="#0D1137"/>
<path d="M201.48 175.8H158.64V186H198V205.2H158.64V214.2H201.48V237H133.44V153H201.48V175.8ZM243.694 238.92C235.174 238.92 224.254 237.36 214.534 234.96V215.76C219.574 217.2 232.894 219.36 240.934 219.36C245.494 219.36 247.534 218.64 247.534 216.84C247.534 215.28 245.854 214.8 242.734 214.8H240.454C217.894 214.8 213.814 203.28 213.814 196.44C213.814 182.88 223.174 175.08 244.414 175.08C254.014 175.08 263.254 176.4 269.854 179.04V197.28C265.054 195.6 252.454 193.68 245.014 193.68C240.814 193.68 239.014 194.28 239.014 195.84C239.014 197.4 240.934 198.12 244.414 198.12H246.334C265.294 198.12 272.134 206.88 272.134 216.6C272.134 232.92 260.734 238.92 243.694 238.92ZM320.958 177C335.838 177 348.198 186.36 348.198 201C348.198 215.64 335.838 225 320.958 225H310.398V237H286.398V177H320.958ZM318.198 206.4C321.558 206.4 324.198 204 324.198 201C324.198 198 321.558 195.6 318.198 195.6H310.398V206.4H318.198ZM392.735 238.92C370.295 238.92 357.095 227.04 357.095 207C357.095 186.96 370.295 175.08 392.735 175.08C415.175 175.08 428.375 186.96 428.375 207C428.375 227.04 415.175 238.92 392.735 238.92ZM392.735 217.92C399.335 217.92 403.175 213.84 403.175 207C403.175 200.16 399.335 196.08 392.735 196.08C386.135 196.08 382.295 200.16 382.295 207C382.295 213.84 386.135 217.92 392.735 217.92ZM442.023 237V177H476.583C493.743 177 503.823 185.52 503.823 199.8C503.823 208.68 499.863 215.4 492.783 219.12L506.703 237H479.223L470.703 222.6H466.023V237H442.023ZM466.023 204H474.183C477.783 204 479.823 202.44 479.823 199.8C479.823 197.16 477.783 195.6 474.183 195.6H466.023V204ZM577.346 177V196.8H558.146V237H534.146V196.8H514.946V177H577.346ZM647.368 194.4H614.968V199.44H640.168V214.44H614.968V219.6H647.368V237H590.968V177H647.368V194.4Z" fill="white"/>
</svg>
