<svg width="781" height="393" viewBox="0 0 781 393" fill="none" xmlns="http://www.w3.org/2000/svg">
<rect width="781" height="393" rx="50" fill="#30677E"/>
<path d="M60.44 188V104H85.64V188H60.44ZM101.718 188V128H127.518L144.918 151.52H146.718V128H171.918V188H146.118L128.718 164.48H126.918V188H101.718ZM189.14 188V128H243.14V147.8H213.14V154.64H235.94V172.04H213.14V188H189.14ZM256.288 188V128H290.848C308.008 128 318.088 136.52 318.088 150.8C318.088 159.68 314.128 166.4 307.048 170.12L320.968 188H293.488L284.968 173.6H280.288V188H256.288ZM280.288 155H288.448C292.048 155 294.088 153.44 294.088 150.8C294.088 148.16 292.048 146.6 288.448 146.6H280.288V155ZM375.892 188L373.612 179.84H354.892L352.612 188H326.212L348.652 128H379.852L402.292 188H375.892ZM360.172 161.24H368.332L364.852 149H363.652L360.172 161.24ZM442.968 159.08H410.568V145.4H442.968V159.08Z" fill="#0D1137"/>
<path d="M128.48 240.8H85.64V251H125V270.2H85.64V279.2H128.48V302H60.44V218H128.48V240.8ZM170.694 303.92C162.174 303.92 151.254 302.36 141.534 299.96V280.76C146.574 282.2 159.894 284.36 167.934 284.36C172.494 284.36 174.534 283.64 174.534 281.84C174.534 280.28 172.854 279.8 169.734 279.8H167.454C144.894 279.8 140.814 268.28 140.814 261.44C140.814 247.88 150.174 240.08 171.414 240.08C181.014 240.08 190.254 241.4 196.854 244.04V262.28C192.054 260.6 179.454 258.68 172.014 258.68C167.814 258.68 166.014 259.28 166.014 260.84C166.014 262.4 167.934 263.12 171.414 263.12H173.334C192.294 263.12 199.134 271.88 199.134 281.6C199.134 297.92 187.734 303.92 170.694 303.92ZM271.612 242V261.8H252.412V302H228.412V261.8H209.212V242H271.612ZM285.234 302V242H319.794C336.954 242 347.034 250.52 347.034 264.8C347.034 273.68 343.074 280.4 335.994 284.12L349.914 302H322.434L313.914 287.6H309.234V302H285.234ZM309.234 269H317.394C320.994 269 323.034 267.44 323.034 264.8C323.034 262.16 320.994 260.6 317.394 260.6H309.234V269ZM392.597 303.92C372.437 303.92 360.557 294.92 360.557 279.8V242H385.757V273.8C385.757 280.04 387.917 282.92 392.597 282.92C397.277 282.92 399.437 280.04 399.437 273.8V242H424.637V279.8C424.637 294.92 412.757 303.92 392.597 303.92ZM499.542 242V261.8H480.342V302H456.342V261.8H437.142V242H499.542ZM544.003 303.92C523.843 303.92 511.963 294.92 511.963 279.8V242H537.163V273.8C537.163 280.04 539.323 282.92 544.003 282.92C548.683 282.92 550.843 280.04 550.843 273.8V242H576.043V279.8C576.043 294.92 564.163 303.92 544.003 303.92ZM592.148 302V242H626.708C643.868 242 653.948 250.52 653.948 264.8C653.948 273.68 649.988 280.4 642.908 284.12L656.828 302H629.348L620.828 287.6H616.148V302H592.148ZM616.148 269H624.308C627.908 269 629.948 267.44 629.948 264.8C629.948 262.16 627.908 260.6 624.308 260.6H616.148V269ZM711.751 302L709.471 293.84H690.751L688.471 302H662.071L684.511 242H715.711L738.151 302H711.751ZM696.031 275.24H704.191L700.711 263H699.511L696.031 275.24Z" fill="#0D1137"/>
<path d="M54.44 182V98H79.64V182H54.44ZM95.7181 182V122H121.518L138.918 145.52H140.718V122H165.918V182H140.118L122.718 158.48H120.918V182H95.7181ZM183.14 182V122H237.14V141.8H207.14V148.64H229.94V166.04H207.14V182H183.14ZM250.288 182V122H284.848C302.008 122 312.088 130.52 312.088 144.8C312.088 153.68 308.128 160.4 301.048 164.12L314.968 182H287.488L278.968 167.6H274.288V182H250.288ZM274.288 149H282.448C286.048 149 288.088 147.44 288.088 144.8C288.088 142.16 286.048 140.6 282.448 140.6H274.288V149ZM369.892 182L367.612 173.84H348.892L346.612 182H320.212L342.652 122H373.852L396.292 182H369.892ZM354.172 155.24H362.332L358.852 143H357.652L354.172 155.24ZM436.968 153.08H404.568V139.4H436.968V153.08Z" fill="white"/>
<path d="M122.48 234.8H79.64V245H119V264.2H79.64V273.2H122.48V296H54.44V212H122.48V234.8ZM164.694 297.92C156.174 297.92 145.254 296.36 135.534 293.96V274.76C140.574 276.2 153.894 278.36 161.934 278.36C166.494 278.36 168.534 277.64 168.534 275.84C168.534 274.28 166.854 273.8 163.734 273.8H161.454C138.894 273.8 134.814 262.28 134.814 255.44C134.814 241.88 144.174 234.08 165.414 234.08C175.014 234.08 184.254 235.4 190.854 238.04V256.28C186.054 254.6 173.454 252.68 166.014 252.68C161.814 252.68 160.014 253.28 160.014 254.84C160.014 256.4 161.934 257.12 165.414 257.12H167.334C186.294 257.12 193.134 265.88 193.134 275.6C193.134 291.92 181.734 297.92 164.694 297.92ZM265.612 236V255.8H246.412V296H222.412V255.8H203.212V236H265.612ZM279.234 296V236H313.794C330.954 236 341.034 244.52 341.034 258.8C341.034 267.68 337.074 274.4 329.994 278.12L343.914 296H316.434L307.914 281.6H303.234V296H279.234ZM303.234 263H311.394C314.994 263 317.034 261.44 317.034 258.8C317.034 256.16 314.994 254.6 311.394 254.6H303.234V263ZM386.597 297.92C366.437 297.92 354.557 288.92 354.557 273.8V236H379.757V267.8C379.757 274.04 381.917 276.92 386.597 276.92C391.277 276.92 393.437 274.04 393.437 267.8V236H418.637V273.8C418.637 288.92 406.757 297.92 386.597 297.92ZM493.542 236V255.8H474.342V296H450.342V255.8H431.142V236H493.542ZM538.003 297.92C517.843 297.92 505.963 288.92 505.963 273.8V236H531.163V267.8C531.163 274.04 533.323 276.92 538.003 276.92C542.683 276.92 544.843 274.04 544.843 267.8V236H570.043V273.8C570.043 288.92 558.163 297.92 538.003 297.92ZM586.148 296V236H620.708C637.868 236 647.948 244.52 647.948 258.8C647.948 267.68 643.988 274.4 636.908 278.12L650.828 296H623.348L614.828 281.6H610.148V296H586.148ZM610.148 263H618.308C621.908 263 623.948 261.44 623.948 258.8C623.948 256.16 621.908 254.6 618.308 254.6H610.148V263ZM705.751 296L703.471 287.84H684.751L682.471 296H656.071L678.511 236H709.711L732.151 296H705.751ZM690.031 269.24H698.191L694.711 257H693.511L690.031 269.24Z" fill="white"/>
</svg>
