<svg width="781" height="393" viewBox="0 0 781 393" fill="none" xmlns="http://www.w3.org/2000/svg">
<rect width="781" height="393" rx="50" fill="#30677E"/>
<path d="M102.44 184L102.56 100H148.4L155 155.08H157.64L164.84 100H210.68L210.8 184H185.48V127.6H182.6L174.32 184H138.92L130.64 127.6H127.76V184H102.44ZM283.321 141.4H250.921V146.44H276.121V161.44H250.921V166.6H283.321V184H226.921V124H283.321V141.4ZM298.757 184V124H322.757V184H298.757ZM372.047 185.92C349.607 185.92 336.407 174.04 336.407 154C336.407 133.96 349.607 122.08 372.047 122.08C394.487 122.08 407.687 133.96 407.687 154C407.687 174.04 394.487 185.92 372.047 185.92ZM372.047 164.92C378.647 164.92 382.487 160.84 382.487 154C382.487 147.16 378.647 143.08 372.047 143.08C365.447 143.08 361.607 147.16 361.607 154C361.607 160.84 365.447 164.92 372.047 164.92Z" fill="#0D1137"/>
<path d="M94.44 180L94.56 96H140.4L147 151.08H149.64L156.84 96H202.68L202.8 180H177.48V123.6H174.6L166.32 180H130.92L122.64 123.6H119.76V180H94.44ZM275.321 137.4H242.921V142.44H268.121V157.44H242.921V162.6H275.321V180H218.921V120H275.321V137.4ZM290.757 180V120H314.757V180H290.757ZM364.047 181.92C341.607 181.92 328.407 170.04 328.407 150C328.407 129.96 341.607 118.08 364.047 118.08C386.487 118.08 399.687 129.96 399.687 150C399.687 170.04 386.487 181.92 364.047 181.92ZM364.047 160.92C370.647 160.92 374.487 156.84 374.487 150C374.487 143.16 370.647 139.08 364.047 139.08C357.447 139.08 353.607 143.16 353.607 150C353.607 156.84 357.447 160.92 364.047 160.92Z" fill="white"/>
<path d="M164.84 298L160.4 284.68H127.52L123.08 298H95.84L127.28 214H160.64L192.08 298H164.84ZM135.2 261.88H152.72L144.8 238.36H143.12L135.2 261.88ZM201.609 298V238H235.569L245.289 261.52H247.089L256.809 238H290.769V298H264.369V270.4H262.329L251.409 298H240.969L230.049 270.4H228.009V298H201.609ZM308.015 298V238H347.735C362.015 238 367.535 245.8 367.535 253.36C367.535 258.4 364.895 263.44 360.575 265.84V266.8C368.615 268 373.175 274.84 373.175 281.68C373.175 289.72 367.175 298 353.015 298H308.015ZM332.015 261.52H340.535C342.695 261.52 344.015 260.32 344.015 258.4C344.015 256.36 342.695 255.16 340.535 255.16H332.015V261.52ZM332.015 280.6H344.735C346.895 280.6 348.215 279.4 348.215 277.36C348.215 275.44 346.895 274.24 344.735 274.24H332.015V280.6ZM385.71 298V238H409.71V298H385.71ZM483.36 255.4H450.96V260.44H476.16V275.44H450.96V280.6H483.36V298H426.96V238H483.36V255.4ZM498.796 298V238H524.596L541.996 261.52H543.796V238H568.996V298H543.196L525.796 274.48H523.996V298H498.796ZM645.018 238V257.8H625.818V298H601.818V257.8H582.618V238H645.018ZM715.04 255.4H682.64V260.44H707.84V275.44H682.64V280.6H715.04V298H658.64V238H715.04V255.4Z" fill="#0D1137"/>
<path d="M157.84 294L153.4 280.68H120.52L116.08 294H88.84L120.28 210H153.64L185.08 294H157.84ZM128.2 257.88H145.72L137.8 234.36H136.12L128.2 257.88ZM194.609 294V234H228.569L238.289 257.52H240.089L249.809 234H283.769V294H257.369V266.4H255.329L244.409 294H233.969L223.049 266.4H221.009V294H194.609ZM301.015 294V234H340.735C355.015 234 360.535 241.8 360.535 249.36C360.535 254.4 357.895 259.44 353.575 261.84V262.8C361.615 264 366.175 270.84 366.175 277.68C366.175 285.72 360.175 294 346.015 294H301.015ZM325.015 257.52H333.535C335.695 257.52 337.015 256.32 337.015 254.4C337.015 252.36 335.695 251.16 333.535 251.16H325.015V257.52ZM325.015 276.6H337.735C339.895 276.6 341.215 275.4 341.215 273.36C341.215 271.44 339.895 270.24 337.735 270.24H325.015V276.6ZM378.71 294V234H402.71V294H378.71ZM476.36 251.4H443.96V256.44H469.16V271.44H443.96V276.6H476.36V294H419.96V234H476.36V251.4ZM491.796 294V234H517.596L534.996 257.52H536.796V234H561.996V294H536.196L518.796 270.48H516.996V294H491.796ZM638.018 234V253.8H618.818V294H594.818V253.8H575.618V234H638.018ZM708.04 251.4H675.64V256.44H700.84V271.44H675.64V276.6H708.04V294H651.64V234H708.04V251.4Z" fill="white"/>
</svg>
