<svg width="781" height="393" viewBox="0 0 781 393" fill="none" xmlns="http://www.w3.org/2000/svg">
<rect width="781" height="393" rx="50" fill="#30677E"/>
<path d="M41.44 239L41.56 155H87.4L94 210.08H96.64L103.84 155H149.68L149.8 239H124.48V182.6H121.6L113.32 239H77.92L69.64 182.6H66.76V239H41.44ZM197.961 240.92C175.521 240.92 162.321 229.04 162.321 209C162.321 188.96 175.521 177.08 197.961 177.08C220.401 177.08 233.601 188.96 233.601 209C233.601 229.04 220.401 240.92 197.961 240.92ZM197.961 219.92C204.561 219.92 208.401 215.84 208.401 209C208.401 202.16 204.561 198.08 197.961 198.08C191.361 198.08 187.521 202.16 187.521 209C187.521 215.84 191.361 219.92 197.961 219.92ZM247.249 239V179H286.969C301.249 179 306.769 186.8 306.769 194.36C306.769 199.4 304.129 204.44 299.809 206.84V207.8C307.849 209 312.409 215.84 312.409 222.68C312.409 230.72 306.409 239 292.249 239H247.249ZM271.249 202.52H279.769C281.929 202.52 283.249 201.32 283.249 199.4C283.249 197.36 281.929 196.16 279.769 196.16H271.249V202.52ZM271.249 221.6H283.969C286.129 221.6 287.449 220.4 287.449 218.36C287.449 216.44 286.129 215.24 283.969 215.24H271.249V221.6ZM324.945 239V179H348.945V239H324.945ZM390.195 179V219.2H416.595V239H366.195V179H390.195ZM429.71 239V179H453.71V239H429.71ZM470.96 239V179H503.12C525.56 179 538.76 190.16 538.76 209C538.76 227.84 525.56 239 503.12 239H470.96ZM494.96 220.4H501.92C509.96 220.4 514.76 216.2 514.76 209C514.76 201.8 509.96 197.6 501.92 197.6H494.96V220.4ZM594.314 239L592.034 230.84H573.314L571.034 239H544.634L567.074 179H598.274L620.714 239H594.314ZM578.594 212.24H586.754L583.274 200H582.074L578.594 212.24ZM631.39 239V179H663.55C685.99 179 699.19 190.16 699.19 209C699.19 227.84 685.99 239 663.55 239H631.39ZM655.39 220.4H662.35C670.39 220.4 675.19 216.2 675.19 209C675.19 201.8 670.39 197.6 662.35 197.6H655.39V220.4ZM769.235 196.4H736.835V201.44H762.035V216.44H736.835V221.6H769.235V239H712.835V179H769.235V196.4Z" fill="#0D1137"/>
<path d="M28.44 239L28.56 155H74.4L81 210.08H83.64L90.84 155H136.68L136.8 239H111.48V182.6H108.6L100.32 239H64.92L56.64 182.6H53.76V239H28.44ZM184.961 240.92C162.521 240.92 149.321 229.04 149.321 209C149.321 188.96 162.521 177.08 184.961 177.08C207.401 177.08 220.601 188.96 220.601 209C220.601 229.04 207.401 240.92 184.961 240.92ZM184.961 219.92C191.561 219.92 195.401 215.84 195.401 209C195.401 202.16 191.561 198.08 184.961 198.08C178.361 198.08 174.521 202.16 174.521 209C174.521 215.84 178.361 219.92 184.961 219.92ZM234.249 239V179H273.969C288.249 179 293.769 186.8 293.769 194.36C293.769 199.4 291.129 204.44 286.809 206.84V207.8C294.849 209 299.409 215.84 299.409 222.68C299.409 230.72 293.409 239 279.249 239H234.249ZM258.249 202.52H266.769C268.929 202.52 270.249 201.32 270.249 199.4C270.249 197.36 268.929 196.16 266.769 196.16H258.249V202.52ZM258.249 221.6H270.969C273.129 221.6 274.449 220.4 274.449 218.36C274.449 216.44 273.129 215.24 270.969 215.24H258.249V221.6ZM311.945 239V179H335.945V239H311.945ZM377.195 179V219.2H403.595V239H353.195V179H377.195ZM416.71 239V179H440.71V239H416.71ZM457.96 239V179H490.12C512.56 179 525.76 190.16 525.76 209C525.76 227.84 512.56 239 490.12 239H457.96ZM481.96 220.4H488.92C496.96 220.4 501.76 216.2 501.76 209C501.76 201.8 496.96 197.6 488.92 197.6H481.96V220.4ZM581.314 239L579.034 230.84H560.314L558.034 239H531.634L554.074 179H585.274L607.714 239H581.314ZM565.594 212.24H573.754L570.274 200H569.074L565.594 212.24ZM618.39 239V179H650.55C672.99 179 686.19 190.16 686.19 209C686.19 227.84 672.99 239 650.55 239H618.39ZM642.39 220.4H649.35C657.39 220.4 662.19 216.2 662.19 209C662.19 201.8 657.39 197.6 649.35 197.6H642.39V220.4ZM756.235 196.4H723.835V201.44H749.035V216.44H723.835V221.6H756.235V239H699.835V179H756.235V196.4Z" fill="white"/>
</svg>
