<svg width="781" height="393" viewBox="0 0 781 393" fill="none" xmlns="http://www.w3.org/2000/svg">
<rect width="781" height="393" rx="50" fill="#30677E"/>
<path d="M94.44 134V50H135.48C157.32 50 171.96 62 171.96 80C171.96 92 165.48 101.24 154.68 106.16L173.04 134H145.56L130.44 110H119.64V134H94.44ZM119.64 89.84H136.44C142.68 89.84 146.76 86.24 146.76 80.84C146.76 75.56 142.68 71.96 136.44 71.96H119.64V89.84ZM240.165 91.4H207.765V96.44H232.965V111.44H207.765V116.6H240.165V134H183.765V74H240.165V91.4ZM255.601 134V74H309.601V93.8H279.601V100.64H302.401V118.04H279.601V134H255.601ZM356.547 135.92C334.107 135.92 320.907 124.04 320.907 104C320.907 83.96 334.107 72.08 356.547 72.08C378.987 72.08 392.187 83.96 392.187 104C392.187 124.04 378.987 135.92 356.547 135.92ZM356.547 114.92C363.147 114.92 366.987 110.84 366.987 104C366.987 97.16 363.147 93.08 356.547 93.08C349.947 93.08 346.107 97.16 346.107 104C346.107 110.84 349.947 114.92 356.547 114.92ZM405.835 134V74H440.395C457.555 74 467.635 82.52 467.635 96.8C467.635 105.68 463.675 112.4 456.595 116.12L470.515 134H443.035L434.515 119.6H429.835V134H405.835ZM429.835 101H437.995C441.595 101 443.635 99.44 443.635 96.8C443.635 94.16 441.595 92.6 437.995 92.6H429.835V101ZM482.359 134V74H516.319L526.039 97.52H527.839L537.559 74H571.519V134H545.119V106.4H543.079L532.159 134H521.719L510.799 106.4H508.759V134H482.359ZM631.845 134L629.565 125.84H610.845L608.565 134H582.165L604.605 74H635.805L658.245 134H631.845ZM616.125 107.24H624.285L620.805 95H619.605L616.125 107.24Z" fill="#0D1137"/>
<path d="M86.44 134V50H127.48C149.32 50 163.96 62 163.96 80C163.96 92 157.48 101.24 146.68 106.16L165.04 134H137.56L122.44 110H111.64V134H86.44ZM111.64 89.84H128.44C134.68 89.84 138.76 86.24 138.76 80.84C138.76 75.56 134.68 71.96 128.44 71.96H111.64V89.84ZM232.165 91.4H199.765V96.44H224.965V111.44H199.765V116.6H232.165V134H175.765V74H232.165V91.4ZM247.601 134V74H301.601V93.8H271.601V100.64H294.401V118.04H271.601V134H247.601ZM348.547 135.92C326.107 135.92 312.907 124.04 312.907 104C312.907 83.96 326.107 72.08 348.547 72.08C370.987 72.08 384.187 83.96 384.187 104C384.187 124.04 370.987 135.92 348.547 135.92ZM348.547 114.92C355.147 114.92 358.987 110.84 358.987 104C358.987 97.16 355.147 93.08 348.547 93.08C341.947 93.08 338.107 97.16 338.107 104C338.107 110.84 341.947 114.92 348.547 114.92ZM397.835 134V74H432.395C449.555 74 459.635 82.52 459.635 96.8C459.635 105.68 455.675 112.4 448.595 116.12L462.515 134H435.035L426.515 119.6H421.835V134H397.835ZM421.835 101H429.995C433.595 101 435.635 99.44 435.635 96.8C435.635 94.16 433.595 92.6 429.995 92.6H421.835V101ZM474.359 134V74H508.319L518.039 97.52H519.839L529.559 74H563.519V134H537.119V106.4H535.079L524.159 134H513.719L502.799 106.4H500.759V134H474.359ZM623.845 134L621.565 125.84H602.845L600.565 134H574.165L596.605 74H627.805L650.245 134H623.845ZM608.125 107.24H616.285L612.805 95H611.605L608.125 107.24Z" fill="white"/>
<path d="M95.64 230V170H127.8C150.24 170 163.44 181.16 163.44 200C163.44 218.84 150.24 230 127.8 230H95.64ZM119.64 211.4H126.6C134.64 211.4 139.44 207.2 139.44 200C139.44 192.8 134.64 188.6 126.6 188.6H119.64V211.4ZM209.125 231.92C186.685 231.92 173.485 220.04 173.485 200C173.485 179.96 186.685 168.08 209.125 168.08C231.565 168.08 244.765 179.96 244.765 200C244.765 220.04 231.565 231.92 209.125 231.92ZM209.125 210.92C215.725 210.92 219.565 206.84 219.565 200C219.565 193.16 215.725 189.08 209.125 189.08C202.525 189.08 198.685 193.16 198.685 200C198.685 206.84 202.525 210.92 209.125 210.92Z" fill="#0D1137"/>
<path d="M87.64 230V170H119.8C142.24 170 155.44 181.16 155.44 200C155.44 218.84 142.24 230 119.8 230H87.64ZM111.64 211.4H118.6C126.64 211.4 131.44 207.2 131.44 200C131.44 192.8 126.64 188.6 118.6 188.6H111.64V211.4ZM201.125 231.92C178.685 231.92 165.485 220.04 165.485 200C165.485 179.96 178.685 168.08 201.125 168.08C223.565 168.08 236.765 179.96 236.765 200C236.765 220.04 223.565 231.92 201.125 231.92ZM201.125 210.92C207.725 210.92 211.565 206.84 211.565 200C211.565 193.16 207.725 189.08 201.125 189.08C194.525 189.08 190.685 193.16 190.685 200C190.685 206.84 194.525 210.92 201.125 210.92Z" fill="white"/>
<path d="M168.84 260V284H142.44V344H117.24V284H90.84V260H168.84ZM235.36 301.4H202.96V306.44H228.16V321.44H202.96V326.6H235.36V344H178.96V284H235.36V301.4ZM250.796 344V284H285.356C302.516 284 312.596 292.52 312.596 306.8C312.596 315.68 308.636 322.4 301.556 326.12L315.476 344H287.996L279.476 329.6H274.796V344H250.796ZM274.796 311H282.956C286.556 311 288.596 309.44 288.596 306.8C288.596 304.16 286.556 302.6 282.956 302.6H274.796V311ZM327.32 344V284H361.28L371 307.52H372.8L382.52 284H416.48V344H390.08V316.4H388.04L377.12 344H366.68L355.76 316.4H353.72V344H327.32ZM433.726 344V284H457.726V344H433.726ZM474.976 344V284H500.776L518.176 307.52H519.976V284H545.176V344H519.376L501.976 320.48H500.176V344H474.976ZM605.478 344L603.198 335.84H584.478L582.198 344H555.798L578.238 284H609.438L631.878 344H605.478ZM589.758 317.24H597.918L594.438 305H593.238L589.758 317.24ZM666.554 284V324.2H692.954V344H642.554V284H666.554Z" fill="#0D1137"/>
<path d="M160.84 260V284H134.44V344H109.24V284H82.84V260H160.84ZM227.36 301.4H194.96V306.44H220.16V321.44H194.96V326.6H227.36V344H170.96V284H227.36V301.4ZM242.796 344V284H277.356C294.516 284 304.596 292.52 304.596 306.8C304.596 315.68 300.636 322.4 293.556 326.12L307.476 344H279.996L271.476 329.6H266.796V344H242.796ZM266.796 311H274.956C278.556 311 280.596 309.44 280.596 306.8C280.596 304.16 278.556 302.6 274.956 302.6H266.796V311ZM319.32 344V284H353.28L363 307.52H364.8L374.52 284H408.48V344H382.08V316.4H380.04L369.12 344H358.68L347.76 316.4H345.72V344H319.32ZM425.726 344V284H449.726V344H425.726ZM466.976 344V284H492.776L510.176 307.52H511.976V284H537.176V344H511.376L493.976 320.48H492.176V344H466.976ZM597.478 344L595.198 335.84H576.478L574.198 344H547.798L570.238 284H601.438L623.878 344H597.478ZM581.758 317.24H589.918L586.438 305H585.238L581.758 317.24ZM658.554 284V324.2H684.954V344H634.554V284H658.554Z" fill="white"/>
</svg>
