<svg width="781" height="393" viewBox="0 0 781 393" fill="none" xmlns="http://www.w3.org/2000/svg">
<rect width="781" height="393" rx="50" fill="#30677E"/>
<path d="M236.84 244.92C223.16 244.92 210.56 243.12 201.32 239.52V217.56C208.76 220.32 223.64 222.72 235.04 222.72C244.16 222.72 250.28 222.24 250.28 218.16C250.28 213.96 246.68 213.12 235.88 213.12C211.52 213.12 200 204.36 200 185.76C200 169.2 212.96 157.08 239.96 157.08C252.92 157.08 263.36 159.24 270.32 162.48V185.04C263.12 182.04 250.52 180.12 239.96 180.12C228.68 180.12 224.6 181.68 224.6 185.64C224.6 188.88 229.64 190.44 240.08 190.44C264.8 190.44 275.36 198.6 275.36 216.24C275.36 235.2 262.52 244.92 236.84 244.92ZM329.626 243L327.346 234.84H308.626L306.346 243H279.946L302.386 183H333.586L356.026 243H329.626ZM313.906 216.24H322.066L318.586 204H317.386L313.906 216.24ZM387.943 175.44L400.903 153H419.742L406.663 175.44H387.943ZM397.543 244.92C377.383 244.92 365.503 235.92 365.503 220.8V183H390.703V214.8C390.703 221.04 392.863 223.92 397.543 223.92C402.223 223.92 404.383 221.04 404.383 214.8V183H429.583V220.8C429.583 235.92 417.703 244.92 397.543 244.92ZM445.687 243V183H477.847C500.287 183 513.487 194.16 513.487 213C513.487 231.84 500.287 243 477.847 243H445.687ZM469.687 224.4H476.647C484.687 224.4 489.487 220.2 489.487 213C489.487 205.8 484.687 201.6 476.647 201.6H469.687V224.4ZM583.532 200.4H551.132V205.44H576.332V220.44H551.132V225.6H583.532V243H527.132V183H583.532V200.4Z" fill="#0D1137"/>
<path d="M226.84 235.92C213.16 235.92 200.56 234.12 191.32 230.52V208.56C198.76 211.32 213.64 213.72 225.04 213.72C234.16 213.72 240.28 213.24 240.28 209.16C240.28 204.96 236.68 204.12 225.88 204.12C201.52 204.12 190 195.36 190 176.76C190 160.2 202.96 148.08 229.96 148.08C242.92 148.08 253.36 150.24 260.32 153.48V176.04C253.12 173.04 240.52 171.12 229.96 171.12C218.68 171.12 214.6 172.68 214.6 176.64C214.6 179.88 219.64 181.44 230.08 181.44C254.8 181.44 265.36 189.6 265.36 207.24C265.36 226.2 252.52 235.92 226.84 235.92ZM319.626 234L317.346 225.84H298.626L296.346 234H269.946L292.386 174H323.586L346.026 234H319.626ZM303.906 207.24H312.066L308.586 195H307.386L303.906 207.24ZM377.943 166.44L390.903 144H409.742L396.663 166.44H377.943ZM387.543 235.92C367.383 235.92 355.503 226.92 355.503 211.8V174H380.703V205.8C380.703 212.04 382.863 214.92 387.543 214.92C392.223 214.92 394.383 212.04 394.383 205.8V174H419.583V211.8C419.583 226.92 407.703 235.92 387.543 235.92ZM435.687 234V174H467.847C490.287 174 503.487 185.16 503.487 204C503.487 222.84 490.287 234 467.847 234H435.687ZM459.687 215.4H466.647C474.687 215.4 479.487 211.2 479.487 204C479.487 196.8 474.687 192.6 466.647 192.6H459.687V215.4ZM573.532 191.4H541.132V196.44H566.332V211.44H541.132V216.6H573.532V234H517.132V174H573.532V191.4Z" fill="white"/>
</svg>
