<svg width="781" height="393" viewBox="0 0 781 393" fill="none" xmlns="http://www.w3.org/2000/svg">
<rect width="781" height="393" rx="50" fill="#30677E"/>
<path d="M178.84 160V184H152.44V244H127.24V184H100.84V160H178.84ZM188.96 244V184H223.52C240.68 184 250.76 192.52 250.76 206.8C250.76 215.68 246.8 222.4 239.72 226.12L253.64 244H226.16L217.64 229.6H212.96V244H188.96ZM212.96 211H221.12C224.72 211 226.76 209.44 226.76 206.8C226.76 204.16 224.72 202.6 221.12 202.6H212.96V211ZM288.524 157.72H305.684L320.204 174.4H302.684L297.764 168.4H296.444L291.524 174.4H274.004L288.524 157.72ZM308.564 244L306.284 235.84H287.564L285.284 244H258.884L281.324 184H312.524L334.964 244H308.564ZM292.844 217.24H301.004L297.524 205H296.324L292.844 217.24ZM345.64 244V184H371.44L388.84 207.52H390.64V184H415.84V244H390.04L372.64 220.48H370.84V244H345.64ZM461.022 245.92C452.502 245.92 441.582 244.36 431.862 241.96V222.76C436.902 224.2 450.222 226.36 458.262 226.36C462.822 226.36 464.862 225.64 464.862 223.84C464.862 222.28 463.182 221.8 460.062 221.8H457.782C435.222 221.8 431.142 210.28 431.142 203.44C431.142 189.88 440.502 182.08 461.742 182.08C471.342 182.08 480.582 183.4 487.182 186.04V204.28C482.382 202.6 469.782 200.68 462.342 200.68C458.142 200.68 456.342 201.28 456.342 202.84C456.342 204.4 458.262 205.12 461.742 205.12H463.662C482.622 205.12 489.462 213.88 489.462 223.6C489.462 239.92 478.062 245.92 461.022 245.92ZM503.726 244V184H527.726V244H503.726ZM603.776 184V203.8H584.576V244H560.576V203.8H541.376V184H603.776ZM648.852 245.92C626.412 245.92 613.212 234.04 613.212 214C613.212 193.96 626.412 182.08 648.852 182.08C671.292 182.08 684.492 193.96 684.492 214C684.492 234.04 671.292 245.92 648.852 245.92ZM648.852 224.92C655.452 224.92 659.292 220.84 659.292 214C659.292 207.16 655.452 203.08 648.852 203.08C642.252 203.08 638.412 207.16 638.412 214C638.412 220.84 642.252 224.92 648.852 224.92Z" fill="#0D1137"/>
<path d="M172.84 149V173H146.44V233H121.24V173H94.84V149H172.84ZM182.96 233V173H217.52C234.68 173 244.76 181.52 244.76 195.8C244.76 204.68 240.8 211.4 233.72 215.12L247.64 233H220.16L211.64 218.6H206.96V233H182.96ZM206.96 200H215.12C218.72 200 220.76 198.44 220.76 195.8C220.76 193.16 218.72 191.6 215.12 191.6H206.96V200ZM282.524 146.72H299.684L314.204 163.4H296.684L291.764 157.4H290.444L285.524 163.4H268.004L282.524 146.72ZM302.564 233L300.284 224.84H281.564L279.284 233H252.884L275.324 173H306.524L328.964 233H302.564ZM286.844 206.24H295.004L291.524 194H290.324L286.844 206.24ZM339.64 233V173H365.44L382.84 196.52H384.64V173H409.84V233H384.04L366.64 209.48H364.84V233H339.64ZM455.022 234.92C446.502 234.92 435.582 233.36 425.862 230.96V211.76C430.902 213.2 444.222 215.36 452.262 215.36C456.822 215.36 458.862 214.64 458.862 212.84C458.862 211.28 457.182 210.8 454.062 210.8H451.782C429.222 210.8 425.142 199.28 425.142 192.44C425.142 178.88 434.502 171.08 455.742 171.08C465.342 171.08 474.582 172.4 481.182 175.04V193.28C476.382 191.6 463.782 189.68 456.342 189.68C452.142 189.68 450.342 190.28 450.342 191.84C450.342 193.4 452.262 194.12 455.742 194.12H457.662C476.622 194.12 483.462 202.88 483.462 212.6C483.462 228.92 472.062 234.92 455.022 234.92ZM497.726 233V173H521.726V233H497.726ZM597.776 173V192.8H578.576V233H554.576V192.8H535.376V173H597.776ZM642.852 234.92C620.412 234.92 607.212 223.04 607.212 203C607.212 182.96 620.412 171.08 642.852 171.08C665.292 171.08 678.492 182.96 678.492 203C678.492 223.04 665.292 234.92 642.852 234.92ZM642.852 213.92C649.452 213.92 653.292 209.84 653.292 203C653.292 196.16 649.452 192.08 642.852 192.08C636.252 192.08 632.412 196.16 632.412 203C632.412 209.84 636.252 213.92 642.852 213.92Z" fill="white"/>
</svg>
